<svg width="35" height="35" viewBox="0 0 35 35" fill="none" xmlns="http://www.w3.org/2000/svg">
<rect width="35" height="35" rx="17.5" fill="white"/>
<g clip-path="url(#clip0_2_174)">
<path d="M26.3165 10.492C24.7865 9.80197 23.1465 9.29197 21.4315 9.00197C21.4162 8.99904 21.4004 9.00093 21.3863 9.00738C21.3721 9.01383 21.3603 9.02452 21.3525 9.03797C21.1425 9.40697 20.9085 9.88797 20.7445 10.268C18.9256 9.99621 17.0764 9.99621 15.2575 10.268C15.0748 9.84683 14.8689 9.4362 14.6405 9.03797C14.6328 9.02436 14.6211 9.01342 14.6069 9.00663C14.5928 8.99984 14.577 8.99752 14.5615 8.99997C12.8475 9.28997 11.2075 9.79997 9.6765 10.491C9.66333 10.4965 9.65217 10.5059 9.6445 10.518C6.5325 15.093 5.6795 19.555 6.0985 23.961C6.09967 23.9718 6.10302 23.9822 6.10835 23.9917C6.11368 24.0011 6.12088 24.0094 6.1295 24.016C7.9459 25.3384 9.97184 26.3458 12.1225 26.996C12.1375 27.0006 12.1535 27.0006 12.1685 26.9959C12.1835 26.9913 12.1967 26.9823 12.2065 26.97C12.6693 26.351 13.0794 25.6944 13.4325 25.007C13.4374 24.9976 13.4402 24.9872 13.4408 24.9767C13.4413 24.9661 13.4396 24.9555 13.4357 24.9456C13.4318 24.9358 13.4259 24.9269 13.4183 24.9195C13.4106 24.9121 13.4015 24.9065 13.3915 24.903C12.7455 24.6597 12.1196 24.3661 11.5195 24.025C11.5087 24.0188 11.4996 24.0101 11.4931 23.9996C11.4865 23.989 11.4826 23.977 11.4818 23.9646C11.481 23.9522 11.4833 23.9398 11.4885 23.9286C11.4937 23.9173 11.5016 23.9075 11.5115 23.9C11.6375 23.807 11.7635 23.71 11.8835 23.613C11.8943 23.6043 11.9073 23.5987 11.9211 23.5969C11.9349 23.5952 11.9489 23.5973 11.9615 23.603C15.8885 25.367 20.1415 25.367 24.0225 23.603C24.0352 23.5969 24.0493 23.5946 24.0633 23.5961C24.0773 23.5977 24.0905 23.6032 24.1015 23.612C24.2215 23.71 24.3465 23.807 24.4735 23.9C24.4835 23.9073 24.4915 23.917 24.4969 23.9282C24.5022 23.9394 24.5047 23.9517 24.5041 23.9641C24.5035 23.9765 24.4999 23.9885 24.4935 23.9991C24.4871 24.0098 24.4782 24.0186 24.4675 24.025C23.8695 24.369 23.2475 24.66 22.5945 24.902C22.5845 24.9056 22.5753 24.9114 22.5677 24.9188C22.5601 24.9263 22.5541 24.9353 22.5502 24.9452C22.5464 24.9551 22.5446 24.9658 22.5452 24.9764C22.5458 24.9871 22.5486 24.9975 22.5535 25.007C22.9135 25.694 23.3255 26.348 23.7785 26.969C23.7879 26.9817 23.801 26.9912 23.8161 26.9963C23.8311 27.0013 23.8473 27.0015 23.8625 26.997C26.0169 26.3486 28.0461 25.3408 29.8645 24.016C29.8734 24.0098 29.8808 24.0017 29.8863 23.9924C29.8919 23.9831 29.8953 23.9727 29.8965 23.962C30.3965 18.868 29.0585 14.442 26.3475 10.52C26.3409 10.5072 26.3299 10.4973 26.3165 10.492ZM14.0195 21.278C12.8375 21.278 11.8625 20.209 11.8625 18.898C11.8625 17.586 12.8185 16.518 14.0195 16.518C15.2295 16.518 16.1955 17.595 16.1765 18.898C16.1765 20.21 15.2205 21.278 14.0195 21.278ZM21.9945 21.278C20.8115 21.278 19.8375 20.209 19.8375 18.898C19.8375 17.586 20.7925 16.518 21.9945 16.518C23.2045 16.518 24.1705 17.595 24.1515 18.898C24.1515 20.21 23.2055 21.278 21.9945 21.278Z" fill="black"/>
</g>
<defs>
<clipPath id="clip0_2_174">
<rect width="24" height="24" fill="white" transform="translate(6 6)"/>
</clipPath>
</defs>
</svg>
