<svg width="17" height="17" viewBox="0 0 17 17" fill="none" xmlns="http://www.w3.org/2000/svg">
<path d="M7.596 16.008C6.20933 16.008 5.516 15.7307 5.516 15.176V10.92H1.324C1.08933 10.92 0.886667 10.728 0.716 10.344C0.545333 9.93867 0.46 9.37333 0.46 8.648C0.46 7.90133 0.694667 7.15467 1.164 6.408C1.63333 5.64 2.092 5.256 2.54 5.256H5.516V1.672C5.516 1.26667 5.868 0.925332 6.572 0.647999C7.29733 0.370665 8.044 0.231998 8.812 0.231998C9.60133 0.231998 10.188 0.317332 10.572 0.487999C10.9773 0.658666 11.18 0.861333 11.18 1.096V5.256H15.404C15.9587 5.256 16.236 5.94933 16.236 7.336C16.236 8.04 16.012 8.81867 15.564 9.672C15.116 10.504 14.6893 10.92 14.284 10.92H11.18V14.696C11.18 15.0587 10.7747 15.368 9.964 15.624C9.17467 15.88 8.38533 16.008 7.596 16.008Z" fill="black"/>
</svg>
